<svg width="30" height="36" viewBox="0 0 30 36" fill="none" xmlns="http://www.w3.org/2000/svg">
<path d="M23.8971 30.2214H2.10294C0.941519 30.2214 0 29.3636 0 28.3054V5.31306C0 4.25487 0.941519 3.39703 2.10294 3.39703H16.25L26 12.2804V28.3054C26 29.3636 25.0585 30.2214 23.8971 30.2214Z" fill="url(#paint0_linear_16_59)"/>
<g opacity="0.26" filter="url(#filter0_f_16_59)">
<rect x="4.58826" y="16.3738" width="17.0147" height="7.31575" fill="#E66000" style="mix-blend-mode:darken"/>
</g>
<path opacity="0.11" d="M19.4916 23.0349V16.8542C19.8808 16.7306 20.2292 16.5191 20.5042 16.2393C20.7791 15.9595 20.9716 15.6208 21.0636 15.2547C21.1556 14.8886 21.1441 14.5073 21.0301 14.1464C20.9161 13.7855 20.7034 13.4569 20.412 13.1914C20.1206 12.9258 19.7599 12.732 19.3638 12.6282C18.9677 12.5244 18.5491 12.5139 18.1474 12.5977C17.7456 12.6815 17.3738 12.8569 17.0667 13.1074C16.7597 13.3579 16.5275 13.6753 16.3918 14.03H9.60815C9.47255 13.6753 9.24034 13.3579 8.93329 13.1074C8.62624 12.8569 8.2544 12.6815 7.85263 12.5977C7.45086 12.5139 7.03231 12.5244 6.63622 12.6282C6.24012 12.732 5.87945 12.9258 5.588 13.1914C5.29656 13.4569 5.08388 13.7855 4.96991 14.1464C4.85594 14.5073 4.84441 14.8886 4.9364 15.2547C5.02839 15.6208 5.22088 15.9595 5.49584 16.2393C5.77079 16.5191 6.11921 16.7306 6.50843 16.8542V23.0349C6.11921 23.1585 5.77079 23.3701 5.49584 23.6498C5.22088 23.9296 5.02839 24.2684 4.9364 24.6344C4.84441 25.0005 4.85594 25.3818 4.96991 25.7427C5.08388 26.1036 5.29656 26.4322 5.588 26.6978C5.87945 26.9633 6.24012 27.1571 6.63622 27.2609C7.03231 27.3648 7.45086 27.3753 7.85263 27.2915C8.2544 27.2077 8.62624 27.0323 8.93329 26.7817C9.24034 26.5312 9.47255 26.2138 9.60815 25.8592H16.3918C16.5275 26.2138 16.7597 26.5312 17.0667 26.7817C17.3738 27.0323 17.7456 27.2077 18.1474 27.2915C18.5491 27.3753 18.9677 27.3648 19.3638 27.2609C19.7599 27.1571 20.1206 26.9633 20.412 26.6978C20.7034 26.4322 20.9161 26.1036 21.0301 25.7427C21.1441 25.3818 21.1556 25.0005 21.0636 24.6344C20.9716 24.2684 20.7791 23.9296 20.5042 23.6498C20.2292 23.3701 19.8808 23.1585 19.4916 23.0349ZM18.6801 14.03C18.8406 14.03 18.9975 14.0733 19.1309 14.1546C19.2644 14.2358 19.3684 14.3513 19.4298 14.4864C19.4912 14.6215 19.5073 14.7701 19.476 14.9135C19.4447 15.0569 19.3674 15.1887 19.2539 15.2921C19.1404 15.3955 18.9958 15.4659 18.8384 15.4944C18.681 15.5229 18.5179 15.5083 18.3696 15.4523C18.2213 15.3964 18.0946 15.3016 18.0054 15.18C17.9163 15.0585 17.8687 14.9155 17.8687 14.7693C17.8687 14.5732 17.9542 14.3852 18.1063 14.2465C18.2585 14.1079 18.4649 14.03 18.6801 14.03ZM7.31988 14.03C7.48036 14.03 7.63725 14.0733 7.77069 14.1546C7.90413 14.2358 8.00814 14.3513 8.06955 14.4864C8.13097 14.6215 8.14704 14.7701 8.11573 14.9135C8.08442 15.0569 8.00714 15.1887 7.89365 15.2921C7.78017 15.3955 7.63559 15.4659 7.47818 15.4944C7.32078 15.5229 7.15762 15.5083 7.00935 15.4523C6.86108 15.3964 6.73435 15.3016 6.64518 15.18C6.55602 15.0585 6.50843 14.9155 6.50843 14.7693C6.50843 14.5732 6.59392 14.3852 6.7461 14.2465C6.89827 14.1079 7.10467 14.03 7.31988 14.03ZM7.31988 25.8592C7.15939 25.8592 7.0025 25.8158 6.86906 25.7346C6.73562 25.6533 6.63161 25.5379 6.5702 25.4028C6.50878 25.2677 6.49271 25.119 6.52402 24.9756C6.55533 24.8322 6.63261 24.7004 6.7461 24.5971C6.85958 24.4937 7.00416 24.4232 7.16157 24.3947C7.31897 24.3662 7.48213 24.3808 7.6304 24.4368C7.77867 24.4927 7.90541 24.5875 7.99457 24.7091C8.08373 24.8307 8.13132 24.9736 8.13132 25.1198C8.13132 25.3159 8.04583 25.504 7.89365 25.6426C7.74148 25.7813 7.53508 25.8592 7.31988 25.8592ZM16.3918 24.3805H9.60815C9.48699 24.0704 9.2916 23.7888 9.03617 23.5561C8.78073 23.3234 8.47164 23.1453 8.13132 23.0349V16.8542C8.47164 16.7438 8.78073 16.5658 9.03617 16.333C9.2916 16.1003 9.48699 15.8187 9.60815 15.5086H16.3918C16.513 15.8187 16.7084 16.1003 16.9638 16.333C17.2193 16.5658 17.5284 16.7438 17.8687 16.8542V23.0349C17.5284 23.1453 17.2193 23.3234 16.9638 23.5561C16.7084 23.7888 16.513 24.0704 16.3918 24.3805ZM18.6801 25.8592C18.5196 25.8592 18.3627 25.8158 18.2293 25.7346C18.0959 25.6533 17.9919 25.5379 17.9304 25.4028C17.869 25.2677 17.853 25.119 17.8843 24.9756C17.9156 24.8322 17.9929 24.7004 18.1063 24.5971C18.2198 24.4937 18.3644 24.4232 18.5218 24.3947C18.6792 24.3662 18.8424 24.3808 18.9907 24.4368C19.1389 24.4927 19.2657 24.5875 19.3548 24.7091C19.444 24.8307 19.4916 24.9736 19.4916 25.1198C19.4916 25.3159 19.4061 25.504 19.2539 25.6426C19.1017 25.7813 18.8953 25.8592 18.6801 25.8592Z" fill="white"/>
<mask id="path-4-outside-1_16_59" maskUnits="userSpaceOnUse" x="9.88971" y="17.0254" width="7" height="19" fill="black">
<rect fill="white" x="9.88971" y="17.0254" width="7" height="19"/>
<path d="M10.5798 24.0704C10.4598 24.0704 10.3607 24.0314 10.2827 23.9534C10.2107 23.8754 10.1746 23.7793 10.1746 23.6653C10.1746 23.6173 10.1897 23.5572 10.2197 23.4852L12.5156 18.065C12.5636 17.9569 12.6297 17.8699 12.7137 17.8039C12.8037 17.7319 12.9118 17.6958 13.0378 17.6958H13.1279C13.2539 17.6958 13.3589 17.7319 13.443 17.8039C13.533 17.8699 13.602 17.9569 13.6501 18.065L15.946 23.4852C15.976 23.5572 15.991 23.6173 15.991 23.6653C15.991 23.7793 15.952 23.8754 15.874 23.9534C15.8019 24.0314 15.7059 24.0704 15.5859 24.0704C15.5018 24.0704 15.4238 24.0494 15.3518 24.0074C15.2857 23.9594 15.2347 23.8964 15.1987 23.8183L14.6135 22.4138H11.5522L10.967 23.8183C10.931 23.8964 10.8769 23.9594 10.8049 24.0074C10.7389 24.0494 10.6638 24.0704 10.5798 24.0704ZM11.8673 21.6665H14.2983L13.0828 18.7403L11.8673 21.6665ZM13.0781 35.0704C12.964 35.0704 12.868 35.0314 12.7899 34.9534C12.7119 34.8754 12.6729 34.7793 12.6729 34.6653V29.11C12.6729 28.996 12.7119 28.8999 12.7899 28.8219C12.868 28.7379 12.964 28.6958 13.0781 28.6958C13.1921 28.6958 13.2881 28.7379 13.3662 28.8219C13.4502 28.8999 13.4922 28.996 13.4922 29.11V34.6653C13.4922 34.7793 13.4502 34.8754 13.3662 34.9534C13.2881 35.0314 13.1921 35.0704 13.0781 35.0704Z"/>
</mask>
<path d="M10.5798 24.0704C10.4598 24.0704 10.3607 24.0314 10.2827 23.9534C10.2107 23.8754 10.1746 23.7793 10.1746 23.6653C10.1746 23.6173 10.1897 23.5572 10.2197 23.4852L12.5156 18.065C12.5636 17.9569 12.6297 17.8699 12.7137 17.8039C12.8037 17.7319 12.9118 17.6958 13.0378 17.6958H13.1279C13.2539 17.6958 13.3589 17.7319 13.443 17.8039C13.533 17.8699 13.602 17.9569 13.6501 18.065L15.946 23.4852C15.976 23.5572 15.991 23.6173 15.991 23.6653C15.991 23.7793 15.952 23.8754 15.874 23.9534C15.8019 24.0314 15.7059 24.0704 15.5859 24.0704C15.5018 24.0704 15.4238 24.0494 15.3518 24.0074C15.2857 23.9594 15.2347 23.8964 15.1987 23.8183L14.6135 22.4138H11.5522L10.967 23.8183C10.931 23.8964 10.8769 23.9594 10.8049 24.0074C10.7389 24.0494 10.6638 24.0704 10.5798 24.0704ZM11.8673 21.6665H14.2983L13.0828 18.7403L11.8673 21.6665ZM13.0781 35.0704C12.964 35.0704 12.868 35.0314 12.7899 34.9534C12.7119 34.8754 12.6729 34.7793 12.6729 34.6653V29.11C12.6729 28.996 12.7119 28.8999 12.7899 28.8219C12.868 28.7379 12.964 28.6958 13.0781 28.6958C13.1921 28.6958 13.2881 28.7379 13.3662 28.8219C13.4502 28.8999 13.4922 28.996 13.4922 29.11V34.6653C13.4922 34.7793 13.4502 34.8754 13.3662 34.9534C13.2881 35.0314 13.1921 35.0704 13.0781 35.0704Z" fill="white"/>
<path d="M10.2827 23.9534L10.1151 24.1081L10.1215 24.1146L10.2827 23.9534ZM10.2197 23.4852L10.0098 23.3963L10.0093 23.3975L10.2197 23.4852ZM12.5156 18.065L12.3073 17.9724L12.3057 17.9761L12.5156 18.065ZM12.7137 17.8039L12.8545 17.9831L12.8561 17.9819L12.7137 17.8039ZM13.443 17.8039L13.2946 17.9769L13.3012 17.9826L13.3082 17.9877L13.443 17.8039ZM13.6501 18.065L13.86 17.9761L13.8584 17.9724L13.6501 18.065ZM15.946 23.4852L16.1564 23.3975L16.1559 23.3963L15.946 23.4852ZM15.874 23.9534L15.7127 23.7921L15.7065 23.7988L15.874 23.9534ZM15.3518 24.0074L15.2177 24.1918L15.227 24.1985L15.2369 24.2043L15.3518 24.0074ZM15.1987 23.8183L14.9881 23.9061L14.9917 23.9139L15.1987 23.8183ZM14.6135 22.4138L14.8239 22.3261L14.7654 22.1858H14.6135V22.4138ZM11.5522 22.4138V22.1858H11.4002L11.3418 22.3261L11.5522 22.4138ZM10.967 23.8183L11.1741 23.9139L11.1774 23.906L10.967 23.8183ZM10.8049 24.0074L10.9273 24.1998L10.9313 24.1971L10.8049 24.0074ZM11.8673 21.6665L11.6568 21.579L11.5258 21.8944H11.8673V21.6665ZM14.2983 21.6665V21.8944H14.6398L14.5088 21.579L14.2983 21.6665ZM13.0828 18.7403L13.2933 18.6528L13.0828 18.1461L12.8723 18.6528L13.0828 18.7403ZM10.5798 23.8425C10.5144 23.8425 10.4752 23.8235 10.4439 23.7922L10.1215 24.1146C10.2463 24.2393 10.4052 24.2984 10.5798 24.2984V23.8425ZM10.4502 23.7988C10.4201 23.7661 10.4026 23.7266 10.4026 23.6653H9.94671C9.94671 23.832 10.0013 23.9846 10.1152 24.108L10.4502 23.7988ZM10.4026 23.6653C10.4026 23.6603 10.4053 23.6323 10.4301 23.5729L10.0093 23.3975C9.97402 23.4821 9.94671 23.5742 9.94671 23.6653H10.4026ZM10.4296 23.5741L12.7255 18.1539L12.3057 17.9761L10.0098 23.3963L10.4296 23.5741ZM12.7239 18.1576C12.7585 18.0798 12.8027 18.0238 12.8545 17.9831L12.5729 17.6246C12.4566 17.716 12.3688 17.8341 12.3073 17.9724L12.7239 18.1576ZM12.8561 17.9819C12.9019 17.9452 12.9584 17.9238 13.0378 17.9238V17.4679C12.8651 17.4679 12.7056 17.5185 12.5713 17.6259L12.8561 17.9819ZM13.0378 17.9238H13.1279V17.4679H13.0378V17.9238ZM13.1279 17.9238C13.2075 17.9238 13.2576 17.9452 13.2946 17.9769L13.5913 17.6308C13.4603 17.5185 13.3003 17.4679 13.1279 17.4679V17.9238ZM13.3082 17.9877C13.3643 18.0288 13.4089 18.0836 13.4418 18.1576L13.8584 17.9724C13.7952 17.8303 13.7017 17.711 13.5778 17.6201L13.3082 17.9877ZM13.4402 18.1539L15.7361 23.5741L16.1559 23.3963L13.86 17.9761L13.4402 18.1539ZM15.7356 23.5729C15.7604 23.6323 15.7631 23.6603 15.7631 23.6653H16.219C16.219 23.5742 16.1917 23.4821 16.1564 23.3975L15.7356 23.5729ZM15.7631 23.6653C15.7631 23.7211 15.7465 23.7585 15.7128 23.7922L16.0352 24.1146C16.1575 23.9922 16.219 23.8375 16.219 23.6653H15.7631ZM15.7065 23.7988C15.6835 23.8237 15.6515 23.8425 15.5859 23.8425V24.2984C15.7604 24.2984 15.9204 24.2391 16.0415 24.108L15.7065 23.7988ZM15.5859 23.8425C15.5419 23.8425 15.5035 23.832 15.4666 23.8105L15.2369 24.2043C15.3441 24.2668 15.4618 24.2984 15.5859 24.2984V23.8425ZM15.4858 23.8231C15.453 23.7992 15.4263 23.7674 15.4057 23.7228L14.9917 23.9139C15.0432 24.0253 15.1185 24.1196 15.2177 24.1918L15.4858 23.8231ZM15.4091 23.7307L14.8239 22.3261L14.4031 22.5014L14.9883 23.906L15.4091 23.7307ZM14.6135 22.1858H11.5522V22.6417H14.6135V22.1858ZM11.3418 22.3261L10.7566 23.7307L11.1774 23.906L11.7626 22.5014L11.3418 22.3261ZM10.76 23.7228C10.7418 23.7623 10.7157 23.7929 10.6785 23.8178L10.9313 24.1971C11.0381 24.1259 11.1201 24.0304 11.1739 23.9139L10.76 23.7228ZM10.6825 23.8151C10.6558 23.8321 10.6238 23.8425 10.5798 23.8425V24.2984C10.7039 24.2984 10.822 24.2667 10.9273 24.1997L10.6825 23.8151ZM11.8673 21.8944H14.2983V21.4385H11.8673V21.8944ZM14.5088 21.579L13.2933 18.6528L12.8723 18.8277L14.0878 21.7539L14.5088 21.579ZM12.8723 18.6528L11.6568 21.579L12.0778 21.7539L13.2933 18.8277L12.8723 18.6528ZM12.7899 34.9534L12.9511 34.7922L12.7899 34.9534ZM12.7899 28.8219L12.9512 28.9832L12.957 28.977L12.7899 28.8219ZM13.3662 28.8219L13.1991 28.977L13.2049 28.9832L13.2111 28.9889L13.3662 28.8219ZM13.3662 34.9534L13.211 34.7862L13.205 34.7922L13.3662 34.9534ZM13.0781 34.8425C13.0222 34.8425 12.9848 34.8259 12.9511 34.7922L12.6288 35.1146C12.7511 35.2369 12.9058 35.2984 13.0781 35.2984V34.8425ZM12.9511 34.7922C12.9174 34.7585 12.9008 34.7211 12.9008 34.6653H12.4449C12.4449 34.8375 12.5064 34.9922 12.6288 35.1146L12.9511 34.7922ZM12.9008 34.6653V29.11H12.4449V34.6653H12.9008ZM12.9008 29.11C12.9008 29.0542 12.9174 29.0168 12.9511 28.9831L12.6288 28.6607C12.5064 28.7831 12.4449 28.9378 12.4449 29.11H12.9008ZM12.957 28.977C12.9921 28.9391 13.0278 28.9238 13.0781 28.9238V28.4679C12.9002 28.4679 12.7438 28.5366 12.6229 28.6668L12.957 28.977ZM13.0781 28.9238C13.1283 28.9238 13.164 28.9391 13.1991 28.977L13.5332 28.6668C13.4123 28.5366 13.2559 28.4679 13.0781 28.4679V28.9238ZM13.2111 28.9889C13.2489 29.0241 13.2643 29.0597 13.2643 29.11H13.7202C13.7202 28.9322 13.6515 28.7757 13.5213 28.6549L13.2111 28.9889ZM13.2643 29.11V34.6653H13.7202V29.11H13.2643ZM13.2643 34.6653C13.2643 34.7155 13.2489 34.7512 13.2111 34.7864L13.5213 35.1204C13.6515 34.9995 13.7202 34.8431 13.7202 34.6653H13.2643ZM13.205 34.7922C13.1713 34.8259 13.1339 34.8425 13.0781 34.8425V35.2984C13.2503 35.2984 13.405 35.2369 13.5273 35.1146L13.205 34.7922Z" fill="white" mask="url(#path-4-outside-1_16_59)"/>
<mask id="mask0_16_59" style="mask-type:alpha" maskUnits="userSpaceOnUse" x="0" y="3" width="26" height="28">
<path d="M23.8971 30.2214H2.10294C0.941519 30.2214 0 29.3636 0 28.3054V5.31306C0 4.25487 0.941519 3.39703 2.10294 3.39703H16.25L26 12.2804V28.3054C26 29.3636 25.0585 30.2214 23.8971 30.2214Z" fill="url(#paint1_linear_16_59)"/>
</mask>
<g mask="url(#mask0_16_59)">
<ellipse opacity="0.04" cx="-1.38603" cy="2.3084" rx="21.364" ry="18.6813" fill="url(#paint2_linear_16_59)"/>
<ellipse opacity="0.06" cx="-1.38608" cy="2.3084" rx="13.4301" ry="11.7139" fill="url(#paint3_linear_16_59)"/>
</g>
<g filter="url(#filter1_d_16_59)">
<path d="M26 12.2805H18.7574C17.3726 12.2805 16.25 11.1579 16.25 9.77311V3.39706L26 12.2805Z" fill="url(#paint4_linear_16_59)"/>
</g>
<defs>
<filter id="filter0_f_16_59" x="0.143404" y="11.9289" width="25.9044" height="16.2055" filterUnits="userSpaceOnUse" color-interpolation-filters="sRGB">
<feFlood flood-opacity="0" result="BackgroundImageFix"/>
<feBlend mode="normal" in="SourceGraphic" in2="BackgroundImageFix" result="shape"/>
<feGaussianBlur stdDeviation="2.22243" result="effect1_foregroundBlur_16_59"/>
</filter>
<filter id="filter1_d_16_59" x="13.6287" y="0.661762" width="15.4485" height="14.5819" filterUnits="userSpaceOnUse" color-interpolation-filters="sRGB">
<feFlood flood-opacity="0" result="BackgroundImageFix"/>
<feColorMatrix in="SourceAlpha" type="matrix" values="0 0 0 0 0 0 0 0 0 0 0 0 0 0 0 0 0 0 127 0" result="hardAlpha"/>
<feOffset dx="0.227941" dy="0.113971"/>
<feGaussianBlur stdDeviation="1.42463"/>
<feColorMatrix type="matrix" values="0 0 0 0 0 0 0 0 0 0 0 0 0 0 0 0 0 0 0.33 0"/>
<feBlend mode="normal" in2="BackgroundImageFix" result="effect1_dropShadow_16_59"/>
<feBlend mode="normal" in="SourceGraphic" in2="effect1_dropShadow_16_59" result="shape"/>
</filter>
<linearGradient id="paint0_linear_16_59" x1="13" y1="3.39703" x2="13" y2="30.2214" gradientUnits="userSpaceOnUse">
<stop stop-color="#FFA216"/>
<stop offset="1" stop-color="#EF8100"/>
</linearGradient>
<linearGradient id="paint1_linear_16_59" x1="13" y1="3.39703" x2="13" y2="30.2214" gradientUnits="userSpaceOnUse">
<stop stop-color="#FFA216"/>
<stop offset="1" stop-color="#EF8100"/>
</linearGradient>
<linearGradient id="paint2_linear_16_59" x1="0.165151" y1="2.95037" x2="5.65955" y2="18.9551" gradientUnits="userSpaceOnUse">
<stop stop-color="white" stop-opacity="0"/>
<stop offset="1" stop-color="white"/>
</linearGradient>
<linearGradient id="paint3_linear_16_59" x1="-0.410949" y1="2.71094" x2="3.02735" y2="12.7519" gradientUnits="userSpaceOnUse">
<stop stop-color="white" stop-opacity="0"/>
<stop offset="1" stop-color="white"/>
</linearGradient>
<linearGradient id="paint4_linear_16_59" x1="21.125" y1="3.39706" x2="21.125" y2="12.2805" gradientUnits="userSpaceOnUse">
<stop stop-color="#FF7A1B"/>
<stop offset="1" stop-color="#E86100"/>
</linearGradient>
</defs>
</svg>
