<svg width="17" height="18" viewBox="0 0 17 18" fill="none" xmlns="http://www.w3.org/2000/svg">
<g clip-path="url(#clip0_18_78)">
<path d="M4.42879 10C4.42879 10.7824 3.79453 11.4167 3.01213 11.4167C2.22972 11.4167 1.59546 10.7824 1.59546 10C1.59546 9.2176 2.22972 8.58334 3.01213 8.58334C3.79453 8.58334 4.42879 9.2176 4.42879 10Z" stroke="#0D0D0D" stroke-width="1.0625"/>
<path d="M4.42879 4.33334C4.42879 5.11574 3.79453 5.75001 3.01213 5.75001C2.22972 5.75001 1.59546 5.11574 1.59546 4.33334C1.59546 3.55093 2.22972 2.91667 3.01213 2.91667C3.79453 2.91667 4.42879 3.55093 4.42879 4.33334Z" stroke="#0D0D0D" stroke-width="1.0625"/>
<path d="M4.42879 15.6667C4.42879 16.4491 3.79453 17.0833 3.01213 17.0833C2.22972 17.0833 1.59546 16.4491 1.59546 15.6667C1.59546 14.8843 2.22972 14.25 3.01213 14.25C3.79453 14.25 4.42879 14.8843 4.42879 15.6667Z" stroke="#0D0D0D" stroke-width="1.0625"/>
</g>
<defs>
<clipPath id="clip0_18_78">
<rect width="17" height="17" fill="white" transform="translate(0 0.5)"/>
</clipPath>
</defs>
</svg>
