<svg width="27" height="30" viewBox="0 0 27 30" fill="none" xmlns="http://www.w3.org/2000/svg">
<mask id="mask0_16_34" style="mask-type:alpha" maskUnits="userSpaceOnUse" x="0" y="0" width="27" height="30">
<path d="M24.4091 29.4412H2.61497C1.45354 29.4412 0.512024 28.4997 0.512024 27.3382V2.10294C0.512024 0.94152 1.45354 0 2.61497 0H16.762L26.512 9.75V27.3382C26.512 28.4997 25.5705 29.4412 24.4091 29.4412Z" fill="url(#paint0_linear_16_34)"/>
</mask>
<g mask="url(#mask0_16_34)">
<path d="M24.4091 29.4412H2.61497C1.45354 29.4412 0.512024 28.4997 0.512024 27.3382V2.10294C0.512024 0.94152 1.45354 0 2.61497 0H16.762L26.512 9.75V27.3382C26.512 28.4997 25.5705 29.4412 24.4091 29.4412Z" fill="url(#paint1_linear_16_34)"/>
<path opacity="0.12" fill-rule="evenodd" clip-rule="evenodd" d="M19.5341 13.2868H7.48999V12.1397H19.5341V13.2868ZM19.5341 16.1544H7.48999V15.0074H19.5341V16.1544ZM7.48999 19.0221H19.5341V17.875H7.48999V19.0221ZM19.5341 21.8897H7.48999V20.7427H19.5341V21.8897ZM7.48999 24.7574H19.5341V23.6103H7.48999V24.7574Z" fill="white"/>
<mask id="path-4-outside-1_16_34" maskUnits="userSpaceOnUse" x="5.38702" y="14.8603" width="17" height="7" fill="black">
<rect fill="white" x="5.38702" y="14.8603" width="17" height="7"/>
<path d="M6.45933 20.898C6.36368 20.898 6.28313 20.8653 6.21769 20.7999C6.15224 20.7344 6.11952 20.6539 6.11952 20.5582V15.9367C6.11952 15.8411 6.15224 15.7605 6.21769 15.6951C6.28313 15.6246 6.36368 15.5894 6.45933 15.5894H8.18107C8.65933 15.5894 9.04949 15.6699 9.35155 15.831C9.65361 15.9921 9.87008 16.1985 10.001 16.4502C10.1319 16.7019 10.1973 16.9738 10.1973 17.2658C10.1973 17.5578 10.1319 17.8296 10.001 18.0813C9.87008 18.3331 9.65361 18.5395 9.35155 18.7006C9.04949 18.8617 8.65933 18.9422 8.18107 18.9422H6.8067V20.5582C6.8067 20.6539 6.77146 20.7344 6.70098 20.7999C6.63553 20.8653 6.55498 20.898 6.45933 20.898ZM8.11311 18.2928C8.62661 18.2928 8.98656 18.1946 9.19297 17.9983C9.40441 17.8019 9.51013 17.5578 9.51013 17.2658C9.51013 16.9738 9.40441 16.7296 9.19297 16.5333C8.98656 16.337 8.62661 16.2388 8.11311 16.2388H6.8067V18.2928H8.11311ZM12.0616 20.8603C11.9659 20.8603 11.8854 20.8276 11.8199 20.7621C11.7545 20.6967 11.7218 20.6161 11.7218 20.5205V15.9367C11.7218 15.8411 11.7545 15.7605 11.8199 15.6951C11.8854 15.6246 11.9659 15.5894 12.0616 15.5894H13.5794C14.1533 15.5894 14.6391 15.7177 15.0369 15.9745C15.4396 16.2262 15.7417 16.5534 15.943 16.9562C16.1444 17.3589 16.2451 17.7818 16.2451 18.2248C16.2451 18.6678 16.1444 19.0907 15.943 19.4935C15.7417 19.8962 15.4396 20.226 15.0369 20.4827C14.6391 20.7344 14.1533 20.8603 13.5794 20.8603H12.0616ZM13.4964 20.2184C13.9092 20.2184 14.2716 20.1353 14.5838 19.9692C14.8959 19.7981 15.1375 19.564 15.3087 19.2669C15.4799 18.9649 15.5655 18.6175 15.5655 18.2248C15.5655 17.8322 15.4799 17.4873 15.3087 17.1903C15.1375 16.8882 14.8959 16.6541 14.5838 16.488C14.2716 16.3168 13.9092 16.2312 13.4964 16.2312H12.4089V20.2184H13.4964ZM18.2612 20.898C18.1655 20.898 18.085 20.8653 18.0195 20.7999C17.9541 20.7344 17.9213 20.6539 17.9213 20.5582V15.9367C17.9213 15.8411 17.9541 15.7605 18.0195 15.6951C18.085 15.6246 18.1655 15.5894 18.2612 15.5894H21.1987C21.2893 15.5894 21.3648 15.6221 21.4252 15.6875C21.4907 15.7479 21.5234 15.8235 21.5234 15.9141C21.5234 16.0047 21.4907 16.0802 21.4252 16.1406C21.3648 16.201 21.2893 16.2312 21.1987 16.2312H18.6085V17.9001H20.9344C21.025 17.9001 21.1005 17.9328 21.1609 17.9983C21.2264 18.0587 21.2591 18.1342 21.2591 18.2248C21.2591 18.3154 21.2264 18.391 21.1609 18.4514C21.1005 18.5118 21.025 18.542 20.9344 18.542H18.6085V20.5582C18.6085 20.6539 18.5733 20.7344 18.5028 20.7999C18.4374 20.8653 18.3568 20.898 18.2612 20.898Z"/>
</mask>
<path d="M6.45933 20.898C6.36368 20.898 6.28313 20.8653 6.21769 20.7999C6.15224 20.7344 6.11952 20.6539 6.11952 20.5582V15.9367C6.11952 15.8411 6.15224 15.7605 6.21769 15.6951C6.28313 15.6246 6.36368 15.5894 6.45933 15.5894H8.18107C8.65933 15.5894 9.04949 15.6699 9.35155 15.831C9.65361 15.9921 9.87008 16.1985 10.001 16.4502C10.1319 16.7019 10.1973 16.9738 10.1973 17.2658C10.1973 17.5578 10.1319 17.8296 10.001 18.0813C9.87008 18.3331 9.65361 18.5395 9.35155 18.7006C9.04949 18.8617 8.65933 18.9422 8.18107 18.9422H6.8067V20.5582C6.8067 20.6539 6.77146 20.7344 6.70098 20.7999C6.63553 20.8653 6.55498 20.898 6.45933 20.898ZM8.11311 18.2928C8.62661 18.2928 8.98656 18.1946 9.19297 17.9983C9.40441 17.8019 9.51013 17.5578 9.51013 17.2658C9.51013 16.9738 9.40441 16.7296 9.19297 16.5333C8.98656 16.337 8.62661 16.2388 8.11311 16.2388H6.8067V18.2928H8.11311ZM12.0616 20.8603C11.9659 20.8603 11.8854 20.8276 11.8199 20.7621C11.7545 20.6967 11.7218 20.6161 11.7218 20.5205V15.9367C11.7218 15.8411 11.7545 15.7605 11.8199 15.6951C11.8854 15.6246 11.9659 15.5894 12.0616 15.5894H13.5794C14.1533 15.5894 14.6391 15.7177 15.0369 15.9745C15.4396 16.2262 15.7417 16.5534 15.943 16.9562C16.1444 17.3589 16.2451 17.7818 16.2451 18.2248C16.2451 18.6678 16.1444 19.0907 15.943 19.4935C15.7417 19.8962 15.4396 20.226 15.0369 20.4827C14.6391 20.7344 14.1533 20.8603 13.5794 20.8603H12.0616ZM13.4964 20.2184C13.9092 20.2184 14.2716 20.1353 14.5838 19.9692C14.8959 19.7981 15.1375 19.564 15.3087 19.2669C15.4799 18.9649 15.5655 18.6175 15.5655 18.2248C15.5655 17.8322 15.4799 17.4873 15.3087 17.1903C15.1375 16.8882 14.8959 16.6541 14.5838 16.488C14.2716 16.3168 13.9092 16.2312 13.4964 16.2312H12.4089V20.2184H13.4964ZM18.2612 20.898C18.1655 20.898 18.085 20.8653 18.0195 20.7999C17.9541 20.7344 17.9213 20.6539 17.9213 20.5582V15.9367C17.9213 15.8411 17.9541 15.7605 18.0195 15.6951C18.085 15.6246 18.1655 15.5894 18.2612 15.5894H21.1987C21.2893 15.5894 21.3648 15.6221 21.4252 15.6875C21.4907 15.7479 21.5234 15.8235 21.5234 15.9141C21.5234 16.0047 21.4907 16.0802 21.4252 16.1406C21.3648 16.201 21.2893 16.2312 21.1987 16.2312H18.6085V17.9001H20.9344C21.025 17.9001 21.1005 17.9328 21.1609 17.9983C21.2264 18.0587 21.2591 18.1342 21.2591 18.2248C21.2591 18.3154 21.2264 18.391 21.1609 18.4514C21.1005 18.5118 21.025 18.542 20.9344 18.542H18.6085V20.5582C18.6085 20.6539 18.5733 20.7344 18.5028 20.7999C18.4374 20.8653 18.3568 20.898 18.2612 20.898Z" fill="white"/>
<path d="M6.21769 20.7999L6.35287 20.6647H6.35287L6.21769 20.7999ZM6.21769 15.6951L6.35296 15.8304L6.35778 15.8252L6.21769 15.6951ZM9.35155 15.831L9.44151 15.6623L9.35155 15.831ZM10.001 16.4502L9.83136 16.5384V16.5384L10.001 16.4502ZM10.001 18.0813L9.83136 17.9931L10.001 18.0813ZM9.35155 18.7006L9.44151 18.8693L9.35155 18.7006ZM6.8067 18.9422V18.751H6.61552V18.9422H6.8067ZM6.70098 20.7999L6.5708 20.6597L6.5658 20.6647L6.70098 20.7999ZM9.19297 17.9983L9.06287 17.8582L9.0612 17.8598L9.19297 17.9983ZM9.19297 16.5333L9.06119 16.6718L9.06288 16.6734L9.19297 16.5333ZM6.8067 16.2388V16.0476H6.61552V16.2388H6.8067ZM6.8067 18.2928H6.61552V18.484H6.8067V18.2928ZM6.45933 20.7069C6.41249 20.7069 6.38114 20.693 6.35287 20.6647L6.0825 20.9351C6.18512 21.0377 6.31487 21.0892 6.45933 21.0892V20.7069ZM6.35287 20.6647C6.32459 20.6364 6.31069 20.6051 6.31069 20.5582H5.92834C5.92834 20.7027 5.97989 20.8324 6.0825 20.9351L6.35287 20.6647ZM6.31069 20.5582V15.9367H5.92834V20.5582H6.31069ZM6.31069 15.9367C6.31069 15.8899 6.32459 15.8585 6.35287 15.8303L6.0825 15.5599C5.97989 15.6625 5.92834 15.7923 5.92834 15.9367H6.31069ZM6.35778 15.8252C6.38728 15.7934 6.41717 15.7805 6.45933 15.7805V15.3982C6.31019 15.3982 6.17898 15.4558 6.07759 15.565L6.35778 15.8252ZM6.45933 15.7805H8.18107V15.3982H6.45933V15.7805ZM8.18107 15.7805C8.63972 15.7805 8.99601 15.8581 9.26158 15.9997L9.44151 15.6623C9.10297 15.4818 8.67894 15.3982 8.18107 15.3982V15.7805ZM9.26158 15.9997C9.53673 16.1464 9.72168 16.3275 9.83136 16.5384L10.1706 16.362C10.0185 16.0695 9.77049 15.8378 9.44151 15.6623L9.26158 15.9997ZM9.83136 16.5384C9.94766 16.7621 10.0061 17.0036 10.0061 17.2658H10.3885C10.3885 16.944 10.3161 16.6418 10.1706 16.362L9.83136 16.5384ZM10.0061 17.2658C10.0061 17.528 9.94766 17.7695 9.83136 17.9931L10.1706 18.1695C10.3161 17.8898 10.3885 17.5876 10.3885 17.2658H10.0061ZM9.83136 17.9931C9.72168 18.2041 9.53673 18.3851 9.26158 18.5319L9.44151 18.8693C9.77049 18.6938 10.0185 18.4621 10.1706 18.1695L9.83136 17.9931ZM9.26158 18.5319C8.99601 18.6735 8.63972 18.751 8.18107 18.751V19.1334C8.67894 19.1334 9.10297 19.0498 9.44151 18.8693L9.26158 18.5319ZM8.18107 18.751H6.8067V19.1334H8.18107V18.751ZM6.61552 18.9422V20.5582H6.99788V18.9422H6.61552ZM6.61552 20.5582C6.61552 20.6004 6.60266 20.6303 6.57089 20.6598L6.83107 20.94C6.94026 20.8386 6.99788 20.7074 6.99788 20.5582H6.61552ZM6.5658 20.6647C6.53752 20.693 6.50618 20.7069 6.45933 20.7069V21.0892C6.60379 21.0892 6.73354 21.0377 6.83616 20.9351L6.5658 20.6647ZM8.11311 18.484C8.63999 18.484 9.06339 18.3854 9.32473 18.1368L9.0612 17.8598C8.90972 18.0039 8.61322 18.1016 8.11311 18.1016V18.484ZM9.32305 18.1384C9.57397 17.9054 9.7013 17.6102 9.7013 17.2658H9.31895C9.31895 17.5053 9.23484 17.6985 9.06288 17.8582L9.32305 18.1384ZM9.7013 17.2658C9.7013 16.9214 9.57397 16.6262 9.32305 16.3932L9.06288 16.6734C9.23484 16.8331 9.31895 17.0262 9.31895 17.2658H9.7013ZM9.32473 16.3948C9.06339 16.1462 8.63999 16.0476 8.11311 16.0476V16.43C8.61322 16.43 8.90972 16.5277 9.0612 16.6718L9.32473 16.3948ZM8.11311 16.0476H6.8067V16.43H8.11311V16.0476ZM6.61552 16.2388V18.2928H6.99788V16.2388H6.61552ZM6.8067 18.484H8.11311V18.1016H6.8067V18.484ZM11.8199 20.7621L11.9551 20.6269L11.8199 20.7621ZM11.8199 15.6951L11.9552 15.8304L11.96 15.8252L11.8199 15.6951ZM15.0369 15.9745L14.9332 16.1351L14.9355 16.1366L15.0369 15.9745ZM15.943 16.9562L15.772 17.0417L15.943 16.9562ZM15.943 19.4935L15.772 19.408L15.943 19.4935ZM15.0369 20.4827L15.1391 20.6443L15.1396 20.6439L15.0369 20.4827ZM14.5838 19.9692L14.6736 20.138L14.6757 20.1368L14.5838 19.9692ZM15.3087 19.2669L15.4744 19.3624L15.475 19.3612L15.3087 19.2669ZM15.3087 17.1903L15.1424 17.2845L15.1431 17.2857L15.3087 17.1903ZM14.5838 16.488L14.4918 16.6556L14.4939 16.6567L14.5838 16.488ZM12.4089 16.2312V16.0401H12.2178V16.2312H12.4089ZM12.4089 20.2184H12.2178V20.4096H12.4089V20.2184ZM12.0616 20.6691C12.0147 20.6691 11.9834 20.6552 11.9551 20.6269L11.6848 20.8973C11.7874 20.9999 11.9171 21.0515 12.0616 21.0515V20.6691ZM11.9551 20.6269C11.9268 20.5987 11.9129 20.5673 11.9129 20.5205H11.5306C11.5306 20.6649 11.5821 20.7947 11.6848 20.8973L11.9551 20.6269ZM11.9129 20.5205V15.9367H11.5306V20.5205H11.9129ZM11.9129 15.9367C11.9129 15.8899 11.9268 15.8585 11.9551 15.8303L11.6848 15.5599C11.5821 15.6625 11.5306 15.7923 11.5306 15.9367H11.9129ZM11.96 15.8252C11.9895 15.7934 12.0194 15.7805 12.0616 15.7805V15.3982C11.9124 15.3982 11.7812 15.4558 11.6798 15.565L11.96 15.8252ZM12.0616 15.7805H13.5794V15.3982H12.0616V15.7805ZM13.5794 15.7805C14.1244 15.7805 14.5724 15.9022 14.9332 16.1351L15.1405 15.8139C14.7059 15.5333 14.1822 15.3982 13.5794 15.3982V15.7805ZM14.9355 16.1366C15.3102 16.3707 15.5873 16.6721 15.772 17.0417L16.114 16.8707C15.896 16.4347 15.5691 16.0817 15.1382 15.8124L14.9355 16.1366ZM15.772 17.0417C15.9604 17.4183 16.0539 17.812 16.0539 18.2248H16.4363C16.4363 17.7516 16.3285 17.2995 16.114 16.8707L15.772 17.0417ZM16.0539 18.2248C16.0539 18.6377 15.9604 19.0313 15.772 19.408L16.114 19.579C16.3285 19.1501 16.4363 18.698 16.4363 18.2248H16.0539ZM15.772 19.408C15.5871 19.7779 15.3095 20.0822 14.9341 20.3215L15.1396 20.6439C15.5697 20.3697 15.8962 20.0146 16.114 19.579L15.772 19.408ZM14.9346 20.3212C14.5736 20.5497 14.1251 20.6691 13.5794 20.6691V21.0515C14.1816 21.0515 14.7047 20.9192 15.1391 20.6443L14.9346 20.3212ZM13.5794 20.6691H12.0616V21.0515H13.5794V20.6691ZM13.4964 20.4096C13.9352 20.4096 14.3295 20.3211 14.6736 20.138L14.4939 19.8005C14.2138 19.9496 13.8831 20.0272 13.4964 20.0272V20.4096ZM14.6757 20.1368C15.0173 19.9495 15.285 19.691 15.4744 19.3624L15.1431 19.1715C14.9901 19.4369 14.7745 19.6466 14.4918 19.8016L14.6757 20.1368ZM15.475 19.3612C15.6645 19.0268 15.7566 18.6461 15.7566 18.2248H15.3743C15.3743 18.5889 15.2952 18.903 15.1424 19.1727L15.475 19.3612ZM15.7566 18.2248C15.7566 17.8036 15.6646 17.4249 15.4744 17.0948L15.1431 17.2857C15.2952 17.5497 15.3743 17.8607 15.3743 18.2248H15.7566ZM15.475 17.096C15.2856 16.7618 15.0172 16.5021 14.6736 16.3192L14.4939 16.6567C14.7746 16.8061 14.9895 17.0147 15.1424 17.2845L15.475 17.096ZM14.6757 16.3204C14.3312 16.1314 13.9361 16.0401 13.4964 16.0401V16.4224C13.8822 16.4224 14.2121 16.5022 14.4918 16.6556L14.6757 16.3204ZM13.4964 16.0401H12.4089V16.4224H13.4964V16.0401ZM12.2178 16.2312V20.2184H12.6001V16.2312H12.2178ZM12.4089 20.4096H13.4964V20.0272H12.4089V20.4096ZM18.0195 20.7999L18.1547 20.6647L18.0195 20.7999ZM18.0195 15.6951L18.1548 15.8304L18.1596 15.8252L18.0195 15.6951ZM21.4252 15.6875L21.2848 15.8172L21.2899 15.8228L21.2956 15.828L21.4252 15.6875ZM21.4252 16.1406L21.2955 16L21.29 16.0054L21.4252 16.1406ZM18.6085 16.2312V16.0401H18.4174V16.2312H18.6085ZM18.6085 17.9001H18.4174V18.0913H18.6085V17.9001ZM21.1609 17.9983L21.0204 18.128L21.0256 18.1336L21.0313 18.1388L21.1609 17.9983ZM21.1609 18.4514L21.0312 18.3108L21.0257 18.3162L21.1609 18.4514ZM18.6085 18.542V18.3508H18.4174V18.542H18.6085ZM18.5028 20.7999L18.3726 20.6597L18.3676 20.6647L18.5028 20.7999ZM18.2612 20.7069C18.2143 20.7069 18.183 20.693 18.1547 20.6647L17.8843 20.9351C17.9869 21.0377 18.1167 21.0892 18.2612 21.0892V20.7069ZM18.1547 20.6647C18.1264 20.6364 18.1125 20.6051 18.1125 20.5582H17.7302C17.7302 20.7027 17.7817 20.8324 17.8843 20.9351L18.1547 20.6647ZM18.1125 20.5582V15.9367H17.7302V20.5582H18.1125ZM18.1125 15.9367C18.1125 15.8899 18.1264 15.8585 18.1547 15.8303L17.8843 15.5599C17.7817 15.6625 17.7302 15.7923 17.7302 15.9367H18.1125ZM18.1596 15.8252C18.1891 15.7934 18.219 15.7805 18.2612 15.7805V15.3982C18.112 15.3982 17.9808 15.4558 17.8794 15.565L18.1596 15.8252ZM18.2612 15.7805H21.1987V15.3982H18.2612V15.7805ZM21.1987 15.7805C21.237 15.7805 21.2612 15.7917 21.2848 15.8172L21.5657 15.5579C21.4684 15.4524 21.3416 15.3982 21.1987 15.3982V15.7805ZM21.2956 15.828C21.321 15.8515 21.3322 15.8758 21.3322 15.9141H21.7146C21.7146 15.7712 21.6603 15.6444 21.5549 15.5471L21.2956 15.828ZM21.3322 15.9141C21.3322 15.9524 21.321 15.9766 21.2956 16.0001L21.5549 16.2811C21.6603 16.1838 21.7146 16.057 21.7146 15.9141H21.3322ZM21.29 16.0054C21.2678 16.0277 21.242 16.0401 21.1987 16.0401V16.4224C21.3366 16.4224 21.4618 16.3744 21.5604 16.2758L21.29 16.0054ZM21.1987 16.0401H18.6085V16.4224H21.1987V16.0401ZM18.4174 16.2312V17.9001H18.7997V16.2312H18.4174ZM18.6085 18.0913H20.9344V17.7089H18.6085V18.0913ZM20.9344 18.0913C20.9727 18.0913 20.9969 18.1025 21.0204 18.128L21.3014 17.8686C21.2041 17.7632 21.0773 17.7089 20.9344 17.7089V18.0913ZM21.0313 18.1388C21.0567 18.1623 21.0679 18.1865 21.0679 18.2248H21.4503C21.4503 18.0819 21.396 17.9551 21.2906 17.8578L21.0313 18.1388ZM21.0679 18.2248C21.0679 18.2631 21.0567 18.2874 21.0313 18.3109L21.2906 18.5918C21.396 18.4945 21.4503 18.3677 21.4503 18.2248H21.0679ZM21.0257 18.3162C21.0035 18.3384 20.9777 18.3508 20.9344 18.3508V18.7332C21.0723 18.7332 21.1975 18.6852 21.2961 18.5866L21.0257 18.3162ZM20.9344 18.3508H18.6085V18.7332H20.9344V18.3508ZM18.4174 18.542V20.5582H18.7997V18.542H18.4174ZM18.4174 20.5582C18.4174 20.6004 18.4045 20.6303 18.3727 20.6598L18.6329 20.94C18.7421 20.8386 18.7997 20.7074 18.7997 20.5582H18.4174ZM18.3676 20.6647C18.3394 20.693 18.308 20.7069 18.2612 20.7069V21.0892C18.4056 21.0892 18.5354 21.0377 18.638 20.9351L18.3676 20.6647Z" fill="white" mask="url(#path-4-outside-1_16_34)"/>
<mask id="mask1_16_34" style="mask-type:alpha" maskUnits="userSpaceOnUse" x="0" y="0" width="27" height="30">
<path d="M24.4091 29.4412H2.61497C1.45354 29.4412 0.512024 28.4997 0.512024 27.3382V2.10294C0.512024 0.94152 1.45354 0 2.61497 0H16.762L26.512 9.75V27.3382C26.512 28.4997 25.5705 29.4412 24.4091 29.4412Z" fill="url(#paint2_linear_16_34)"/>
</mask>
<g mask="url(#mask1_16_34)">
<ellipse opacity="0.08" cx="-2.11668" cy="-0.621323" rx="21.364" ry="20.5037" fill="url(#paint3_linear_16_34)"/>
<ellipse opacity="0.08" cx="-2.11667" cy="-0.621333" rx="13.4301" ry="12.8566" fill="url(#paint4_linear_16_34)"/>
</g>
<g filter="url(#filter0_d_16_34)">
<path d="M26.512 9.75H18.865C17.7035 9.75 16.762 8.80848 16.762 7.64706V0L26.512 9.75Z" fill="url(#paint5_linear_16_34)"/>
</g>
</g>
<defs>
<filter id="filter0_d_16_34" x="14.5635" y="-2.29412" width="14.5294" height="14.5294" filterUnits="userSpaceOnUse" color-interpolation-filters="sRGB">
<feFlood flood-opacity="0" result="BackgroundImageFix"/>
<feColorMatrix in="SourceAlpha" type="matrix" values="0 0 0 0 0 0 0 0 0 0 0 0 0 0 0 0 0 0 127 0" result="hardAlpha"/>
<feOffset dx="0.191176" dy="0.0955882"/>
<feGaussianBlur stdDeviation="1.19485"/>
<feColorMatrix type="matrix" values="0 0 0 0 0 0 0 0 0 0 0 0 0 0 0 0 0 0 0.33 0"/>
<feBlend mode="normal" in2="BackgroundImageFix" result="effect1_dropShadow_16_34"/>
<feBlend mode="normal" in="SourceGraphic" in2="effect1_dropShadow_16_34" result="shape"/>
</filter>
<linearGradient id="paint0_linear_16_34" x1="13.512" y1="0" x2="13.512" y2="29.4412" gradientUnits="userSpaceOnUse">
<stop stop-color="#FF7979"/>
<stop offset="1" stop-color="#E85555"/>
</linearGradient>
<linearGradient id="paint1_linear_16_34" x1="13.512" y1="0" x2="13.512" y2="29.4412" gradientUnits="userSpaceOnUse">
<stop stop-color="#FF7981"/>
<stop offset="1" stop-color="#E85567"/>
</linearGradient>
<linearGradient id="paint2_linear_16_34" x1="13.512" y1="0" x2="13.512" y2="29.4412" gradientUnits="userSpaceOnUse">
<stop stop-color="#FF7981"/>
<stop offset="1" stop-color="#E85567"/>
</linearGradient>
<linearGradient id="paint3_linear_16_34" x1="-0.565503" y1="0.0832709" x2="5.91339" y2="17.2783" gradientUnits="userSpaceOnUse">
<stop stop-color="white" stop-opacity="0"/>
<stop offset="1" stop-color="white"/>
</linearGradient>
<linearGradient id="paint4_linear_16_34" x1="-1.14154" y1="-0.179525" x2="2.91323" y2="10.6093" gradientUnits="userSpaceOnUse">
<stop stop-color="white" stop-opacity="0"/>
<stop offset="1" stop-color="white"/>
</linearGradient>
<linearGradient id="paint5_linear_16_34" x1="21.637" y1="0" x2="21.637" y2="9.75" gradientUnits="userSpaceOnUse">
<stop stop-color="#D03954"/>
<stop offset="1" stop-color="#C02A3C"/>
</linearGradient>
</defs>
</svg>
